<svg xmlns="http://www.w3.org/2000/svg" viewBox="0 0 40 56">
	<path fill="#86868b" d="M25.3,35.92V34.79a4.47,4.47,0,0,1-4.2-3.11,3.25,3.25,0,0,1-.06-.45.77.77,0,0,1,.8-.82.85.85,0,0,1,.84.71,2.76,2.76,0,0,0,2.62,2.1v-4.7l-.14,0c-2.54-.59-3.83-1.74-3.83-3.63,0-2,1.66-3.48,4-3.72V20.08a.62.62,0,0,1,.66-.66.64.64,0,0,1,.66.66v1.05a4.24,4.24,0,0,1,3.93,3,1.8,1.8,0,0,1,.06.45.77.77,0,0,1-.8.82.84.84,0,0,1-.84-.7,2.75,2.75,0,0,0-2.35-2v4.45l.26,0c2.63.51,4,1.72,4,3.75,0,2.25-1.81,3.63-4.22,3.85v1.11a.64.64,0,0,1-.66.66A.63.63,0,0,1,25.3,35.92Zm0-13.2c-1.37.21-2.27,1-2.27,2.05s.68,1.6,2.17,2l.1,0Zm1.32,10.5c1.64-.15,2.52-1,2.52-2.18s-.6-1.68-2.18-2.11l-.34-.08Z"/>
	<path fill="#86868b" d="M8.17,34.29a2,2,0,0,1,.14-.7l4.4-11.76a1.46,1.46,0,0,1,1.48-1.06,1.5,1.5,0,0,1,1.52,1.06l4.38,11.76a2,2,0,0,1,.13.7.92.92,0,0,1-1,.94c-.51,0-.84-.24-1.06-.88L17,31H11.42l-1.2,3.4c-.21.64-.54.88-1.05.88A.92.92,0,0,1,8.17,34.29Zm8.25-5-2.15-6.13h-.14L12,29.29Z"/>
	<path fill="#86868b" d="M20,10.7A17.3,17.3,0,1,1,2.7,28,17.32,17.32,0,0,1,20,10.7m0-2.2A19.5,19.5,0,1,0,39.5,28,19.5,19.5,0,0,0,20,8.5Z"/>
</svg>
